<svg height="512" viewBox="0 0 512.052 512.052" width="512" xmlns="http://www.w3.org/2000/svg"><path fill="#0d3f63" d="M510.877 219.283L462.27 73.462c-4.985-14.958-16.312-26.711-31.073-32.245C316.485-1.801 322.661.49 321.937.312c-1.57-.381-130.188-.321-131.399-.089-1.015.193 6.003-2.377-109.65 40.993C66.126 46.751 54.8 58.504 49.814 73.461-3.322 232.872.043 221.199.043 226.463c0 11.789 9.207 21.731 20.96 22.635l83.04 6.388v224.592a7.998 7.998 0 005.191 7.49c83.836 31.441 203.67 33.733 293.619 0a7.999 7.999 0 005.19-7.49V255.485l83.039-6.388c14.45-1.11 24.511-15.662 19.795-29.814zM256.043 80.077c35.886 0 65.719-26.392 71.122-60.785l15.219 5.707c-7.975 40.929-44.034 71.078-86.34 71.078s-78.364-30.149-86.339-71.079l15.218-5.707c5.401 34.394 35.233 60.786 71.12 60.786zm-55.42-64h110.839c-3.895 27.102-27.257 48-55.419 48s-51.525-20.899-55.42-48zm289.232 217.067l-81.813 6.293v-55.361a8 8 0 00-16 0v290.396c-80.313 28.308-189.002 29.254-272 0V184.076a8 8 0 00-16 0v55.361l-81.813-6.293c-3.47-.267-6.188-3.201-6.188-6.682 0-1.693-2.987 7.872 48.951-147.941 3.452-10.355 11.293-18.492 21.513-22.324l68.018-25.507c10.429 47.039 52.426 81.387 101.518 81.387S347.132 77.73 357.56 30.69l68.019 25.508c10.219 3.831 18.06 11.968 21.511 22.323 52.06 156.177 48.952 146.325 48.952 147.941.001 3.481-2.717 6.416-6.187 6.682z"/></svg>