<svg version="1.1" id="Слой_1" xmlns="http://www.w3.org/2000/svg" x="0" y="0" viewBox="0 0 78.1 68.4" xml:space="preserve"><style>.st0{fill:#9ad096}</style><path class="st0" d="M46 29.7c3.8 3.8 3.8 10 0 13.8-3.8 3.8-10 3.8-13.8 0-3.8-3.8-3.8-10 0-13.8 3.8-3.8 9.9-3.8 13.8 0"/><path class="st0" d="M68.4 9.8h-6.7l-5-9.8H21.4l-4.9 9.8H9.8C4.4 9.8 0 14.2 0 19.5v39c0 5.4 4.4 9.8 9.8 9.8h58.6c5.4 0 9.8-4.4 9.8-9.8v-39c-.1-5.4-4.5-9.7-9.8-9.7zM39.1 56.1c-10.8 0-19.5-8.8-19.5-19.5s8.8-19.5 19.5-19.5 19.5 8.8 19.5 19.5-8.8 19.5-19.5 19.5z"/></svg>