<svg xmlns="http://www.w3.org/2000/svg" viewBox="0 0 94 93.1"><path d="M37.6 49.9l1.5 10 1.5-10c2.2-14.9 3.6-16.3 18.5-18.5L69 30l-10-1.5C44.2 26.3 42.8 24.9 40.6 10L39.1 0l-1.5 10C35.4 24.9 34 26.3 19.1 28.5L9.1 30l10 1.5C34 33.6 35.4 35 37.6 49.9zm1.5-26c.9 3.6 2.4 5.1 6 6-3.6.9-5.1 2.4-6 6-.6-2.5-1.5-4-3.2-4.9-.9-.5-1.8-.8-2.8-1.1 3.6-.9 5.1-2.3 6-6zM24 58l-1.5-10L21 58c-1.4 9.1-2 9.7-11.1 11.1L0 70.6 10 72c9.1 1.4 9.7 2 11.1 11.1l1.5 10 1.5-10c1.4-9.1 2-9.7 11.1-11.1l10-1.5-10-1.5C26 67.7 25.4 67.1 24 58zm48.9-9.8l-1.5-10-1.5 10c-1.4 9.1-2 9.7-11.1 11.1l-10 1.5 10 1.5c9.1 1.4 9.7 2 11.1 11.1l1.5 10 1.5-10c1.4-9.1 2-9.7 11.1-11.1l10-1.5-10-1.5c-9.1-1.4-9.7-2-11.1-11.1z" fill="#9ad096"/></svg>