<svg xmlns="http://www.w3.org/2000/svg" viewBox="0 0 77.7 77.7"><path d="M69.6 0H49.1c-3.9 0-7.6 1.5-10.3 4.3l-36 36C-.9 44-.9 50 2.8 53.6L24.1 75c3.7 3.7 9.7 3.7 13.3 0l36-36c2.7-2.7 4.3-6.4 4.3-10.3V8.1c0-4.5-3.6-8.1-8.1-8.1zm-9.7 25.9c-4.5 0-8.1-3.6-8.1-8.1s3.6-8.1 8.1-8.1 8.1 3.6 8.1 8.1-3.6 8.1-8.1 8.1z" fill="#9ad096"/><path d="M34 58.3c-.9 0-1.6-.7-1.6-1.6V30.8c0-.9.7-1.6 1.6-1.6.9 0 1.6.7 1.6 1.6v25.9c0 .9-.7 1.6-1.6 1.6zm-9.7-13c-2.7 0-4.9-2.2-4.9-4.9s2.2-4.9 4.9-4.9 4.9 2.2 4.9 4.9c-.1 2.8-2.2 4.9-4.9 4.9zm0-6.4c-.9 0-1.6.7-1.6 1.6 0 .9.7 1.6 1.6 1.6.9 0 1.6-.7 1.6-1.6 0-.9-.7-1.6-1.6-1.6zm19.4 12.9c-2.7 0-4.9-2.2-4.9-4.9S41 42 43.7 42s4.9 2.2 4.9 4.9-2.2 4.9-4.9 4.9zm0-6.5c-.9 0-1.6.7-1.6 1.6 0 .9.7 1.6 1.6 1.6s1.6-.7 1.6-1.6c0-.8-.7-1.6-1.6-1.6z" fill="#fafafa"/></svg>