<svg version="1.1" id="Слой_1" xmlns="http://www.w3.org/2000/svg" x="0" y="0" viewBox="0 0 92.9 80.8" xml:space="preserve"><style>.st0{fill:#9ad096}</style><path class="st0" d="M46.5 7.8c4 0 7.5-2.6 8.7-6.3-2.4.7-5.4 1.1-8.7 1.1-3.3 0-6.4-.4-8.7-1.1 1.2 3.7 4.6 6.3 8.7 6.3z"/><path class="st0" d="M92.8 12.5c-.2-.5-.6-1-1.1-1.2L74 3.1C70.2 1.8 66.4.8 62.5.1h-.4c-1 0-1.8.7-2 1.6-1.4 6.2-6.9 10.9-13.6 10.9-6.7 0-12.2-4.7-13.6-10.9-.2-1-1.1-1.6-2-1.6h-.4c-3.9.7-7.7 1.7-11.5 3L1.2 11.2c-.5.2-.9.7-1.1 1.2-.2.6-.1 1.2.1 1.7l7.7 15.2c.4.7 1.1 1.1 1.9 1.1.2 0 .4 0 .6-.1l8.5-2.5v50.9c0 1.2.9 2.1 2.1 2.1h50.8c1.2 0 2.1-.9 2.1-2.1V27.8l8.5 2.5c.2.1.4.1.6.1.8 0 1.5-.4 1.9-1.2L92.6 14c.3-.4.4-1 .2-1.5zM46.5 50.4S31 41.9 31 33.5c0-4.7 3.8-8.4 8.4-8.4 2.8 0 5.5 1.4 7.1 3.8 1.6-2.4 4.2-3.8 7.1-3.8 4.6 0 8.4 3.8 8.4 8.4-.1 8.5-15.5 16.9-15.5 16.9z"/></svg>