<svg xmlns="http://www.w3.org/2000/svg" viewBox="0 0 77.8 81.2"><path d="M77.7 20.1v-.2c-.1-.2-.1-.3-.2-.5v-.1c-.1-.2-.3-.3-.3-.4l-.1-.1c-.1-.1-.3-.2-.3-.3l-.1-.1h-.1l-.1-.1L40 .3c-.7-.3-1.5-.3-2.3 0L25.4 6.4l36.7 18.8.1.1c.1 0 .1.1.2.1.1.1.1.2.2.3v20.2c0 .3-.2.6-.4.8l-7.4 3.9c-.4.3-.9.1-1.2-.3-.1-.1-.1-.3-.1-.4V30.1L16.3 11l-.1-.1-14.8 7.4-.1.1h-.1l-.1.1c-.1.1-.3.2-.3.3l-.1.1c-.2.2-.3.3-.4.5v.1c-.1.2-.2.3-.2.5v.2c0 .2-.1.3-.1.4v40.1c0 .9.5 1.9 1.5 2.3l36.2 18c.5.3 1.1.3 1.7.2l.2-.1c.2 0 .3-.1.4-.2l36.4-18c.9-.4 1.5-1.3 1.5-2.3V20.5c-.2-.1-.2-.2-.2-.4z" fill="#9ad096"/></svg>