<svg xmlns="http://www.w3.org/2000/svg" viewBox="0 0 330 330"><path d="M325.606 304.394L223.329 202.117c16.706-21.256 26.682-48.04 26.682-77.111C250.011 56.077 193.934 0 125.005 0 56.077 0 0 56.077 0 125.005S56.077 250.01 125.005 250.01c29.07 0 55.855-9.975 77.111-26.681l102.278 102.277A14.946 14.946 0 00315 330c3.839 0 7.678-1.464 10.606-4.394 5.858-5.857 5.858-15.355 0-21.212zM30 125.005C30 72.619 72.619 30 125.005 30c52.386 0 95.006 42.619 95.006 95.005 0 52.386-42.62 95.005-95.006 95.005S30 177.391 30 125.005z"/></svg>