<svg version="1.1" id="Слой_1" xmlns="http://www.w3.org/2000/svg" x="0" y="0" viewBox="0 0 79.1 81.8" xml:space="preserve"><style>.st0{fill:#9ad096}</style><circle class="st0" cx="31.5" cy="72.1" r="9.7"/><path class="st0" d="M59.7 62.4c-5.3 0-9.7 4.3-9.7 9.7s4.3 9.7 9.7 9.7 9.7-4.3 9.7-9.7-4.4-9.7-9.7-9.7zm16.4-9.8H25.7l-1-5.7h41.4c1.2 0 2.3-.7 2.8-1.9l9.9-24.9c.6-1.5-.1-3.2-1.7-3.8-.3-.1-.7-.2-1.1-.2H19.6L17.3 2.5C17 1 15.8 0 14.3 0H3C1.3 0 0 1.3 0 3s1.3 3 3 3h8.9l8.4 50c.2 1.4 1.5 2.5 3 2.5h52.9c1.6 0 3-1.3 3-3-.1-1.6-1.4-2.9-3.1-2.9z"/></svg>