<svg version="1.1" id="Слой_1" xmlns="http://www.w3.org/2000/svg" x="0" y="0" viewBox="0 0 102.3 89" xml:space="preserve"><style>.st0{fill:#9ad096}</style><path class="st0" d="M51.1 8.6c4.4 0 8.3-2.8 9.6-7-2.6.7-6 1.2-9.6 1.2-3.7 0-7-.4-9.6-1.2 1.4 4.2 5.2 7 9.6 7z"/><path class="st0" d="M102.1 13.7c-.2-.6-.6-1.1-1.2-1.3l-19.5-9C77.3 2 73 .9 68.8 0h-.4c-1.1 0-2 .7-2.2 1.8-1.6 6.9-7.6 12-15 12-7.3 0-13.4-5.1-15-12C35.9.7 35 0 33.9 0h-.4C29.2.9 25 2 20.8 3.4l-19.5 9c-.6.3-1 .7-1.2 1.3-.2.6-.1 1.3.2 1.8l8.5 16.7c.4.8 1.2 1.3 2.1 1.3.2 0 .4 0 .7-.1l9.4-2.8v56c0 1.3 1 2.3 2.3 2.3h56c1.3 0 2.3-1 2.3-2.3v-56l9.4 2.8c.2.1.4.1.7.1.9 0 1.7-.5 2.1-1.3l8.5-16.7c0-.5 0-1.2-.2-1.8z"/></svg>