<svg version="1.1" id="Слой_1" xmlns="http://www.w3.org/2000/svg" x="0" y="0" viewBox="0 0 81.1 81.1" xml:space="preserve"><style>.st0{fill:#9ad096}</style><path class="st0" d="M75.6 66.3H62.7c-8.1 0-14.7-6.6-14.7-14.7s6.6-14.7 14.7-14.7h12.9c1 0 1.8-.8 1.8-1.8v-5.5c0-3.9-3-7-6.8-7.3L60 3.7C59 2 57.4.8 55.5.3 53.7-.3 51.7 0 50 1L13.7 22.1H7.4c-4.1 0-7.4 3.3-7.4 7.4v44.2c0 4.1 3.3 7.4 7.4 7.4H70c4.1 0 7.4-3.3 7.4-7.4v-5.5c0-1-.8-1.9-1.8-1.9zM62.3 15.1l4 7h-16l12-7zm-41.2 7L51.9 4.2c.8-.5 1.8-.6 2.7-.4.9.3 1.7.9 2.2 1.7L28.3 22.1h-7.2z"/><path class="st0" d="M75.6 40.5H62.7c-6.1 0-11.1 5-11.1 11.1s5 11.1 11.1 11.1h12.9c3 0 5.5-2.5 5.5-5.5V46.1c0-3.1-2.5-5.6-5.5-5.6zM62.7 55.3c-2 0-3.7-1.7-3.7-3.7s1.7-3.7 3.7-3.7 3.7 1.7 3.7 3.7c-.1 2-1.7 3.7-3.7 3.7z"/></svg>