<svg version="1.1" id="Слой_1" xmlns="http://www.w3.org/2000/svg" x="0" y="0" viewBox="0 0 92.8 87" xml:space="preserve"><style>.st0{fill:#9ad096}</style><path class="st0" d="M84.8 74.9c5.2-5.6 8.1-12.5 8.1-19.7 0-9-4.5-17.2-11.6-23-.2 20.7-19.6 37.5-43.5 37.5H21.5C27.8 79.9 40.5 87 55.1 87h34.8c1.2 0 2.2-.7 2.7-1.8s.2-2.3-.6-3.2l-7.2-7.1z"/><path class="st0" d="M37.7 0C16.9 0 0 14.3 0 31.9 0 39.1 2.9 46 8.1 51.6L.9 58.8C0 59.7-.2 60.9.2 62c.5 1.1 1.5 1.8 2.7 1.8h34.8c20.8 0 37.7-14.3 37.7-31.9S58.5 0 37.7 0z"/></svg>