<svg xmlns="http://www.w3.org/2000/svg" viewBox="0 0 81.1 81.1"><path d="M67 80.4L53.1 66.5l-6.7 6.7c-.6.6-1.4.8-2.2.6-.8-.2-1.4-.8-1.7-1.6L29 32c-.3-.9-.1-1.8.6-2.4.6-.6 1.6-.9 2.4-.6l40.3 13.4c.8.3 1.4.9 1.6 1.7.2.8-.1 1.6-.6 2.2L66.6 53l13.8 14c.9.9.9 2.4 0 3.4l-10.1 10c-.9.9-2.4.9-3.3 0zM30.9 19c-1.3 0-2.4-1.1-2.4-2.4V2.4c0-1.3 1.1-2.4 2.4-2.4 1.3 0 2.4 1.1 2.4 2.4v14.3c0 1.2-1.1 2.3-2.4 2.3zm-11.8 3.5L9 12.4c-.9-.9-.9-2.4 0-3.4s2.4-.9 3.4 0l10.1 10.1c.9.9.9 2.4 0 3.4-.9.9-2.4.9-3.4 0zM9 52.7c-.9-.9-.9-2.4 0-3.4l10.1-10.1c.9-.9 2.4-.9 3.4 0 .9.9.9 2.4 0 3.4L12.4 52.7c-.9 1-2.4 1-3.4 0zm30.3-30.2c-.9-.9-.9-2.4 0-3.4L49.4 9c.9-.9 2.4-.9 3.4 0s.9 2.4 0 3.4L42.7 22.5c-1 .9-2.5.9-3.4 0zM16.6 33.3H2.4c-1.3 0-2.4-1.1-2.4-2.4 0-1.3 1.1-2.4 2.4-2.4h14.3c1.3 0 2.4 1.1 2.4 2.4-.1 1.3-1.2 2.4-2.5 2.4z" fill="#9ad096"/></svg>