<svg xmlns="http://www.w3.org/2000/svg" viewBox="0 0 145.2 30.2"><path d="M4.1 21.7c-1.2-.5-2.2-1.2-2.9-2.2C.5 18.5.1 17.3 0 16h5.5c.1.8.3 1.4.8 1.8.5.4 1.1.6 1.8.6.8 0 1.4-.2 1.8-.5s.7-.8.7-1.5c0-.5-.2-.9-.5-1.3-.4-.3-.8-.6-1.3-.8-.5-.2-1.2-.5-2.2-.8-1.4-.4-2.5-.8-3.3-1.3-.9-.4-1.6-1-2.2-1.9-.7-.8-1-1.9-1-3.2 0-2 .7-3.5 2.1-4.6C3.6 1.4 5.5.8 7.7.8c2.3 0 4.2.6 5.6 1.7 1.4 1.1 2.2 2.7 2.3 4.6H10c0-.7-.3-1.2-.8-1.6S8.3 5 7.6 5c-.7 0-1.2.1-1.5.4s-.6.9-.6 1.5c0 .7.3 1.2 1 1.6.6.4 1.6.8 3 1.2 1.4.5 2.5.9 3.3 1.3s1.6 1 2.2 1.8c.6.8.9 1.8.9 3.1 0 1.2-.3 2.3-.9 3.3-.6 1-1.5 1.8-2.7 2.3-1.2.6-2.5.9-4.1.9-1.5 0-2.9-.2-4.1-.7zM34 7.2c1.2 1.3 1.7 3 1.7 5.2v9.8h-5.1v-9.1c0-1.1-.3-2-.9-2.6-.6-.6-1.4-.9-2.3-.9-1 0-1.8.3-2.3.9-.6.6-.9 1.5-.9 2.6v9.1H19V0h5.1v7.7c.5-.7 1.2-1.3 2.1-1.8s1.9-.7 3-.7c2.1.1 3.6.7 4.8 2zm5.2 2.1c.6-1.3 1.5-2.3 2.7-3 1.1-.7 2.4-1 3.8-1 1.2 0 2.2.2 3.1.7.9.5 1.6 1.1 2.1 1.9V5.5H56v16.7h-5.1v-2.4c-.5.8-1.2 1.4-2.1 1.9-.9.5-1.9.7-3.1.7-1.4 0-2.6-.4-3.7-1.1-1.1-.7-2-1.7-2.7-3-.6-1.3-1-2.8-1-4.5-.1-1.7.3-3.2.9-4.5zm10.5 1.5c-.7-.7-1.6-1.1-2.6-1.1s-1.9.4-2.6 1.1c-.7.7-1.1 1.7-1.1 3s.4 2.3 1.1 3c.7.8 1.6 1.1 2.6 1.1s1.9-.4 2.6-1.1c.7-.7 1.1-1.8 1.1-3s-.4-2.3-1.1-3zM67 6.1c.9-.5 1.9-.8 3-.8v5.4h-1.4c-1.3 0-2.2.3-2.9.8-.6.6-1 1.5-1 2.9v7.8h-5.1V5.5h5.1v2.8c.7-1 1.4-1.7 2.3-2.2zm21.2 9H76.6c.1 1 .4 1.8 1 2.4.6.6 1.3.8 2.2.8 1.3 0 2.2-.5 2.7-1.6H88c-.3 1.1-.8 2.1-1.5 3-.7.9-1.6 1.6-2.7 2.1s-2.3.8-3.7.8c-1.6 0-3.1-.4-4.4-1.1-1.3-.7-2.3-1.7-3-3-.7-1.3-1.1-2.8-1.1-4.6 0-1.7.4-3.3 1.1-4.6.7-1.3 1.7-2.3 3-3 1.3-.7 2.7-1 4.4-1 1.6 0 3.1.3 4.3 1 1.3.7 2.2 1.6 3 2.9.7 1.3 1.1 2.7 1.1 4.4-.2.4-.3.9-.3 1.5zM83 12.2c0-.9-.3-1.6-.9-2.1-.6-.5-1.4-.8-2.2-.8-.9 0-1.6.3-2.2.8-.6.5-1 1.2-1.1 2.1H83zm7.9-2.9c.6-1.3 1.5-2.3 2.7-3 1.1-.7 2.4-1 3.8-1 1.2 0 2.2.2 3.1.7.9.5 1.6 1.1 2.1 1.9V5.5h5.1v16.7h-5.1v-2.4c-.5.8-1.2 1.4-2.1 1.9-.9.5-1.9.7-3.1.7-1.4 0-2.6-.4-3.7-1.1-1.1-.7-2-1.7-2.7-3-.6-1.3-1-2.8-1-4.5-.1-1.7.3-3.2.9-4.5zm10.5 1.5c-.7-.7-1.6-1.1-2.6-1.1s-1.9.4-2.6 1.1c-.7.7-1.1 1.7-1.1 3s.4 2.3 1.1 3c.7.8 1.6 1.1 2.6 1.1s1.9-.4 2.6-1.1c.7-.7 1.1-1.8 1.1-3s-.4-2.3-1.1-3zm12.8 10.9c-1.1-.5-2-1.2-2.7-2.1-.7-.9-1-1.8-1.1-2.9h5.1c.1.6.3 1.1.8 1.4s1.1.5 1.8.5c.6 0 1.1-.1 1.5-.4.3-.2.5-.6.5-1 0-.5-.3-.8-.8-1.1-.5-.2-1.3-.5-2.4-.8-1.2-.3-2.2-.6-3-.9-.8-.3-1.5-.8-2.1-1.5-.6-.7-.9-1.6-.9-2.7 0-1 .3-1.8.8-2.6s1.3-1.4 2.3-1.9c1-.5 2.3-.7 3.7-.7 2.1 0 3.8.5 5 1.6 1.2 1 1.9 2.4 2.1 4.1h-4.7c-.1-.6-.3-1-.8-1.4-.4-.3-1-.5-1.7-.5-.6 0-1.1.1-1.4.3-.3.2-.5.5-.5.9 0 .5.3.8.8 1.1.5.2 1.3.5 2.4.7 1.2.3 2.2.6 3 .9s1.5.8 2.1 1.5c.6.7.9 1.6.9 2.8 0 1-.3 1.9-.8 2.6-.6.8-1.3 1.4-2.4 1.8-1 .4-2.2.7-3.6.7-1.4.3-2.7.1-3.9-.4zm31-16.2l-10.5 24.7h-5.5l3.8-8.5-6.8-16.2h5.7l3.9 10.5 3.8-10.5h5.6z"/></svg>