<svg version="1.1" id="Слой_1" xmlns="http://www.w3.org/2000/svg" xmlns:xlink="http://www.w3.org/1999/xlink" x="0" y="0" viewBox="0 0 639.5 45.4" xml:space="preserve"><style>.st1{fill:#a1b5b3}.st2{fill:#879b99}.st3{fill:#baccca}</style><path d="M9.5 41.4h1.8v4H9.5zm14 0h1.8v4h-1.8zm11 0h1.8v4h-1.8zm10 0h1.8v4h-1.8zm13 0h1.8v4h-1.8zm10 0h1.8v4h-1.8zm11 0h1.8v4h-1.8zm9 0h1.8v4h-1.8zm12 0h1.8v4h-1.8zm14 0h1.8v4h-1.8zm11 0h1.8v4h-1.8zm10 0h1.8v4h-1.8zm13 0h1.8v4h-1.8zm10 0h1.8v4h-1.8zm11 0h1.8v4h-1.8zm9 0h1.8v4h-1.8zm8 0h1.8v4h-1.8zm13 0h1.8v4h-1.8zm10 0h1.8v4h-1.8zm11 0h1.8v4h-1.8zm9 0h1.8v4h-1.8zm12 0h1.8v4h-1.8zm14 0h1.8v4h-1.8zm11 0h1.8v4h-1.8zm9 0h1.8v4h-1.8zm11 0h1.8v4h-1.8zm9 0h1.8v4h-1.8zm12 0h1.8v4h-1.8zm14 0h1.8v4h-1.8zm11 0h1.8v4h-1.8zm10 0h1.8v4h-1.8zm13 0h1.8v4h-1.8zm10 0h1.8v4h-1.8zm11 0h1.8v4h-1.8zm13 0h1.8v4h-1.8zm11 0h1.8v4h-1.8zm10 0h1.8v4h-1.8zm13 0h1.8v4h-1.8zm10 0h1.8v4h-1.8zm11 0h1.8v4h-1.8zm9 0h1.8v4h-1.8zm8 0h1.8v4h-1.8zm13 0h1.8v4h-1.8zm10 0h1.8v4h-1.8zm11 0h1.8v4h-1.8zm9 0h1.8v4h-1.8zm12 0h1.8v4h-1.8zm14 0h1.8v4h-1.8zm11 0h1.8v4h-1.8zm9 0h1.8v4h-1.8zm10 0h1.8v4h-1.8zm11 0h1.8v4h-1.8zm12 0h1.8v4h-1.8zm11 0h1.8v4h-1.8zm9 0h1.8v4h-1.8zm12 0h1.8v4h-1.8zm14 0h1.8v4h-1.8z" fill="#a37d69"/><path class="st1" d="M20.7 34.2c0 7.9-4.6 9-10.4 9S0 42.1 0 34.2s6.9-19.5 10.4-19.5 10.3 11.7 10.3 19.5z"/><path class="st2" d="M36.7 32c0 9.8-5.5 11.2-12.3 11.2S12.1 41.8 12.1 32 20.3 7.6 24.4 7.6 36.7 22.2 36.7 32z"/><path class="st1" d="M67.9 34c0 8-4.3 9.2-9.6 9.2s-9.6-1.1-9.6-9.2 6.4-20 9.6-20c3.3.1 9.6 12 9.6 20z"/><path class="st3" d="M78.5 34.8c0 7.4-4.5 8.4-10.2 8.4s-10.2-1-10.2-8.4S65 16.5 68.4 16.5c3.4 0 10.1 10.9 10.1 18.3z"/><path class="st1" d="M43.9 33.9c0 8.1-3.8 9.3-8.6 9.3s-8.6-1.1-8.6-9.3 5.7-20.2 8.6-20.2c2.9 0 8.6 12.1 8.6 20.2z"/><path class="st2" d="M87.3 34.2c0 7.9-3.6 9-7.9 9-4.4 0-7.9-1.1-7.9-9s5.3-19.6 7.9-19.6c2.6.1 7.9 11.7 7.9 19.6zM51.4 30c0 11.6-2.7 13.2-6 13.2s-6-1.6-6-13.2 4-28.7 6-28.7 6 17.1 6 28.7z"/><path class="st2" d="M94.1 31.6c0 10.2-2.6 11.6-5.7 11.6-3.2 0-5.7-1.4-5.7-11.6s3.8-25.3 5.7-25.3 5.7 15 5.7 25.3z"/><path class="st1" d="M111 34.1c0 7.9-4.8 9-10.6 9-5.9 0-10.6-1.1-10.6-9s7.1-19.7 10.6-19.7S111 26.2 111 34.1z"/><path class="st2" d="M124.5 32.8c0 9.1-4.6 10.4-10.2 10.4s-10.2-1.3-10.2-10.4 6.8-22.6 10.2-22.6c3.5.1 10.2 13.5 10.2 22.6zm35.7.4c0 8.7-5.3 9.9-11.8 9.9s-11.8-1.2-11.8-9.9 7.9-21.6 11.8-21.6c3.9 0 11.8 12.9 11.8 21.6z"/><path class="st1" d="M168.3 34.9c0 7.3-4.4 8.3-9.9 8.3s-9.9-1-9.9-8.3 6.6-18.1 9.9-18.1c3.3 0 9.9 10.8 9.9 18.1z"/><path class="st3" d="M132.6 34.5c0 7.6-3.2 8.7-7.2 8.7s-7.2-1.1-7.2-8.7 4.8-18.9 7.2-18.9c2.4 0 7.2 11.3 7.2 18.9zm77.3-.8c0 8.3-4.7 9.5-10.5 9.5s-10.5-1.2-10.5-9.5 7-20.7 10.5-20.7 10.5 12.3 10.5 20.7z"/><path class="st2" d="M220.6 34.5c0 7.7-5 8.7-11.2 8.7-6.2 0-11.2-1.1-11.2-8.7s7.5-19 11.2-19c3.7 0 11.2 11.3 11.2 19z"/><path class="st3" d="M227.9 34.4c0 7.7-3.4 8.8-7.5 8.8s-7.5-1.1-7.5-8.8 5-19.1 7.5-19.1 7.5 11.4 7.5 19.1z"/><path class="st1" d="M192.4 30c0 11.6-2.7 13.2-6 13.2s-6-1.6-6-13.2 4-28.7 6-28.7 6 17.1 6 28.7zm44.2.5c0 11.2-3.2 12.7-7.2 12.7s-7.2-1.6-7.2-12.7 4.8-27.7 7.2-27.7c2.4-.1 7.2 16.5 7.2 27.7z"/><path class="st2" d="M252.2 34.1c0 8-4.8 9.1-10.8 9.1s-10.8-1.1-10.8-9.1 7.2-19.8 10.8-19.8c3.6 0 10.8 11.8 10.8 19.8z"/><path class="st3" d="M266.4 32.5c0 9.4-5 10.7-11.1 10.7s-11.1-1.3-11.1-10.7 7.4-23.3 11.1-23.3c3.8 0 11.1 13.9 11.1 23.3z"/><path class="st1" d="M273.7 34.5c0 7.7-3.3 8.7-7.3 8.7s-7.3-1.1-7.3-8.7 4.9-19 7.3-19 7.3 11.3 7.3 19z"/><path class="st3" d="M176.5 34.6c0 7.6-3.2 8.6-7.1 8.6-3.9 0-7.1-1.1-7.1-8.6s4.8-18.8 7.1-18.8 7.1 11.2 7.1 18.8z"/><path class="st1" d="M141.9 29.6c0 11.9-2.9 13.6-6.5 13.6s-6.5-1.7-6.5-13.6S133.2 0 135.4 0s6.5 17.7 6.5 29.6z"/><path class="st2" d="M285.5 34.8c0 7.3-4.5 8.4-10.1 8.4s-10.1-1-10.1-8.4 6.7-18.2 10.1-18.2 10.1 10.9 10.1 18.2z"/><path class="st3" d="M295 33.9c0 8.1-3.9 9.3-8.6 9.3s-8.6-1.1-8.6-9.3 5.7-20.2 8.6-20.2 8.6 12.1 8.6 20.2z"/><path class="st1" d="M302.8 30.3c0 11.3-3.3 12.9-7.4 12.9-4.1 0-7.4-1.6-7.4-12.9s5-28.1 7.4-28.1c2.4 0 7.4 16.8 7.4 28.1z"/><path class="st1" d="M318.8 33.9c0 8.2-5.1 9.3-11.5 9.3s-11.5-1.1-11.5-9.3 7.6-20.3 11.5-20.3 11.5 12.1 11.5 20.3z"/><path class="st3" d="M333 32.3c0 9.6-5.2 10.9-11.7 10.9-6.4 0-11.7-1.3-11.7-10.9s7.8-23.8 11.7-23.8S333 22.7 333 32.3z"/><path class="st1" d="M367.6 33.1c0 8.9-5.5 10.1-12.2 10.1s-12.2-1.2-12.2-10.1 8.2-22 12.2-22 12.2 13.1 12.2 22z"/><path class="st2" d="M376.4 34.5c0 7.6-4.9 8.7-11 8.7s-11-1.1-11-8.7 7.3-18.8 11-18.8c3.6 0 11 11.3 11 18.8z"/><path class="st1" d="M341 33.9c0 8.1-3.8 9.3-8.6 9.3s-8.6-1.1-8.6-9.3 5.7-20.2 8.6-20.2 8.6 12.1 8.6 20.2zm43 .4c0 7.8-3.4 8.9-7.7 8.9s-7.7-1.1-7.7-8.9 5.1-19.3 7.7-19.3 7.7 11.6 7.7 19.3z"/><path class="st2" d="M347.9 30.4c0 11.2-2.5 12.8-5.5 12.8s-5.5-1.6-5.5-12.8 3.7-27.8 5.5-27.8 5.5 16.6 5.5 27.8zm-163.6 1c0 10.4-2.7 11.8-6 11.8s-6-1.5-6-11.8 4-25.7 6-25.7 6 15.3 6 25.7z"/><path class="st3" d="M400.2 32.6c0 9.3-4.9 10.6-10.9 10.6s-10.9-1.3-10.9-10.6 7.2-23.1 10.9-23.1c3.7-.1 10.9 13.7 10.9 23.1z"/><path class="st1" d="M434.5 33.5c0 8.5-5 9.7-11.2 9.7s-11.2-1.2-11.2-9.7 7.4-21.2 11.2-21.2 11.2 12.6 11.2 21.2z"/><path class="st2" d="M444.8 34.4c0 7.7-5.1 8.8-11.4 8.8S422 42.1 422 34.4s7.6-19.1 11.4-19.1c3.8 0 11.4 11.4 11.4 19.1z"/><path class="st1" d="M407.2 34.7c0 7.4-3.1 8.5-6.8 8.5s-6.8-1-6.8-8.5 4.5-18.5 6.8-18.5 6.8 11.1 6.8 18.5zm78.1-1.2c0 8.5-4.9 9.7-11 9.7s-11-1.2-11-9.7 7.3-21 11-21 11 12.6 11 21z"/><path class="st3" d="M496 34.3c0 7.8-5.2 8.9-11.7 8.9s-11.7-1.1-11.7-8.9S480.5 15 484.4 15 496 26.6 496 34.3z"/><path class="st3" d="M502.8 34.4c0 7.7-3.3 8.8-7.4 8.8s-7.4-1.1-7.4-8.8 5-19.1 7.4-19.1 7.4 11.4 7.4 19.1z"/><path class="st1" d="M467.5 29.9c0 11.6-2.8 13.3-6.1 13.3-3.4 0-6.1-1.6-6.1-13.3s4-28.9 6.1-28.9 6.1 17.3 6.1 28.9zm43.5.9c0 10.8-3 12.4-6.7 12.4s-6.7-1.5-6.7-12.4S502.1 4 504.4 4s6.6 16 6.6 26.8z"/><path class="st2" d="M525.4 34.7c0 7.5-4 8.5-9 8.5s-9-1-9-8.5 6-18.5 9-18.5 9 11 9 18.5z"/><path class="st1" d="M541 32.7c0 9.2-4.7 10.5-10.6 10.5s-10.6-1.3-10.6-10.5 7.1-22.9 10.6-22.9S541 23.4 541 32.7zm40.9 1c0 8.3-4.7 9.5-10.5 9.5s-10.5-1.2-10.5-9.5 7-20.7 10.5-20.7 10.5 12.4 10.5 20.7z"/><path class="st3" d="M593.4 34.8c0 7.3-4.5 8.3-10 8.3s-10-1-10-8.3 6.7-18.2 10-18.2c3.3.1 10 10.9 10 18.2z"/><path class="st1" d="M600.9 34.8c0 7.3-2.9 8.4-6.5 8.4s-6.5-1-6.5-8.4 4.4-18.2 6.5-18.2 6.5 10.9 6.5 18.2z"/><path class="st2" d="M566.3 30.1c0 11.5-2.7 13.1-5.9 13.1s-5.9-1.6-5.9-13.1 3.9-28.5 5.9-28.5 5.9 17 5.9 28.5z"/><path class="st3" d="M610.1 30.8c0 10.9-3 12.4-6.8 12.4s-6.8-1.5-6.8-12.4 4.5-27 6.8-27 6.8 16.1 6.8 27z"/><path class="st3" d="M626.5 34c0 8.1-5 9.2-11.1 9.2-6.2 0-11.1-1.1-11.1-9.2s7.4-20 11.1-20c3.7-.1 11.1 11.9 11.1 20z"/><path class="st1" d="M639.5 32.8c0 9.1-4.5 10.3-10.1 10.3s-10.1-1.3-10.1-10.3 6.7-22.5 10.1-22.5 10.1 13.5 10.1 22.5zm-91.2 1.8c0 7.5-3.1 8.5-7 8.5-3.8 0-7-1.1-7-8.5s4.6-18.6 7-18.6 7 11.1 7 18.6zm-94.9-.9c0 8.3-4.1 9.5-9.1 9.5s-9.1-1.2-9.1-9.5 6.1-20.7 9.1-20.7c3.1 0 9.1 12.4 9.1 20.7z"/><path class="st2" d="M416.7 29.8c0 11.8-2.8 13.4-6.3 13.4s-6.3-1.6-6.3-13.4S408.3.6 410.4.6c2.1-.1 6.3 17.4 6.3 29.2z"/><path class="st3" d="M561 34.7c0 7.5-4.7 8.5-10.6 8.5s-10.6-1-10.6-8.5 7.1-18.6 10.6-18.6S561 27.2 561 34.7zm-101.6-3.4c0 10.5-2.7 11.9-6.1 11.9-3.4 0-6.1-1.5-6.1-11.9s4.1-25.9 6.1-25.9 6.1 15.4 6.1 25.9z"/><defs><path id="SVGID_1_" d="M606.9 1.4h32.5v44h-32.5z"/></defs><clipPath id="SVGID_2_"><use xlink:href="#SVGID_1_" overflow="visible"/></clipPath><path d="M639.5 32.8c0-9.1-6.7-22.5-10.1-22.5-2 0-5.1 4.6-7.3 10.1-2.3-3.8-4.9-6.5-6.7-6.5-1.7 0-4.1 2.5-6.3 5.9-1.5-8.4-4.1-16.1-5.7-16.1-1.6 0-4.4 8.3-5.8 17-1.1-2.5-2.3-4.1-3.2-4.1-1.2 0-2.9 3.1-4.4 7.1-2.2-4-4.9-7-6.6-7-1.3 0-3.2 1.8-5 4.3-2.3-4.5-5.1-8-7-8-1.6 0-3.9 2.5-6 6.1-1.3-9-3.7-17.5-5-17.5-1.4 0-3.9 9-5.2 18.3-1.7-2.3-3.5-3.8-4.8-3.8-1.5 0-3.5 1.9-5.4 4.6-1.3-2.8-2.6-4.7-3.6-4.7-.9 0-2.1 1.6-3.3 4.1-2.4-5.7-5.6-10.4-7.7-10.4-2.3 0-6.2 5.9-8.5 12.6-1.8-3.5-4-6.1-5.5-6.1-1.6 0-4 3-5.9 7-1.3-9.4-4.4-19.2-6.1-19.2-1.5 0-4 7.4-5.5 15.5-1.2-2.5-2.5-4.1-3.5-4.1-1.1 0-2.8 2.4-4.2 5.6-2.3-3.5-5-5.9-6.8-5.9-1.2 0-2.7 1.1-4.3 2.8-2-3.2-4.2-5.3-5.7-5.3-2 0-5.1 3.7-7.5 8.5-1.2-9.9-4-20-5.5-20-1.2 0-3 5.6-4.4 12.7-1.2-4.8-2.7-8.4-3.6-8.4-1.2 0-3.2 5.7-4.6 12.5-1.6-2.8-3.2-4.8-4.4-4.8-1.5 0-3.6 2.8-5.4 6.7-2-2.6-4.1-4.4-5.6-4.4-1.1 0-2.6 1-4.1 2.6-2.1-3.3-4.3-5.6-5.9-5.6-2 0-4.9 3.5-7.3 8.1-1.3-9.9-4.1-19.8-5.7-19.8-1.7 0-4.7 11.2-5.9 21.8-1.4-3.5-3-6.1-4.1-6.1-.8 0-2 1.5-3.1 3.8-2.4-5.8-5.8-10.6-7.9-10.6-2.3 0-6 5.5-8.4 11.9-1.6-3.6-3.4-6.2-4.6-6.2-1.2 0-3.1 2.7-4.7 6.4-2.2-3.3-4.7-5.7-6.3-5.7-.9 0-2 .7-3.1 1.8-2.4-3.7-5-6.4-6.9-6.4-2.2 0-5.6 3.8-8.3 8.8-1.2-8.9-3.4-17.2-4.7-17.2-1.3 0-3.6 8.7-4.8 17.8-1.8-3.8-3.8-6.7-5.2-6.7-1 0-2.2 1.4-3.5 3.5-2.5-5-5.5-8.7-7.5-8.7-2.2 0-5.6 4.5-8.2 10.2-2.1-3-4.3-5-5.8-5-1.6 0-3.8 2-5.8 5-1.6-8.6-4.5-16.4-6.2-16.4-1.6 0-4.1 6.7-5.8 14.5-1.2-1.8-2.3-3-3.2-3-1.5 0-3.8 3.3-5.7 7.7-1.9-2.8-3.9-4.8-5.3-4.8-1.3 0-3.2 1.7-5 4.2-1.4-3.1-3-5.3-4-5.3-.9 0-2.1 1.5-3.2 3.7-2.4-5.5-5.7-10-7.8-10-2.2 0-5.6 4.8-8.1 10.7-2.1-3.2-4.3-5.5-5.9-5.5-1.6 0-3.8 2.2-5.9 5.4-1.6-8.8-4.4-17-6.1-17-1.6 0-4.3 7.5-5.9 15.8-1.1-2-2.2-3.3-3.1-3.3-1.2 0-2.9 2.6-4.4 6.1-2.2-3.4-4.8-5.9-6.6-5.9-1.2 0-2.8 1.2-4.4 3-2-3.2-4.1-5.5-5.6-5.5-2 0-5.1 4-7.5 9-1.1-10.1-4-20.7-5.5-20.7-1.2 0-3 5.8-4.4 12.9-1.2-4.9-2.7-8.6-3.6-8.6-1.4 0-3.7 7.5-5 15.5-1.4-3.1-2.9-5.4-4-5.4-1.3 0-3.2 3.2-4.8 7.4-2.1-3.6-4.6-6.4-6.2-6.4-.8 0-1.9.7-3 1.8-2.4-4-5.2-7-7-7-1.9 0-4.9 3.2-7.3 7.4-1.4-9.7-4.1-19-5.7-19-1.7 0-4.7 10.7-6 21.1-1.4-3.2-3-5.4-4-5.4s-2.4 1.9-3.7 4.7c-2.3-5.6-5.4-10.1-7.3-10.1-2 0-5.3 4.8-7.6 10.7-2.2-3.7-4.7-6.5-6.4-6.5-1.9 0-4.8 3.3-7.1 7.7-1.2-8.6-3.6-16.4-4.9-16.4-1.3 0-3.3 6.6-4.6 14-1.5-3.3-3.2-5.6-4.4-5.6-1.4 0-3.5 3.2-5.2 7.4-2-3.2-4.3-5.5-5.8-5.5-1.2 0-2.9 1.4-4.5 3.6-1.9-3.5-4-6-5.5-6-2 0-5.1 4.5-7.3 9.8-1-10.7-4.1-22.6-5.7-22.6-1.5 0-4 8.9-5.2 18.2-1.6-3.4-3.5-5.8-4.8-5.8-.9 0-2 1.1-3.1 2.8-2.6-5.1-5.8-8.9-7.9-8.9-2.4 0-6.3 5.1-9.1 11.4-1.8-2.6-3.6-4.3-4.9-4.3C6.9 14.8 0 26.4 0 34.2c0 7.4 4.2 8.8 9.5 8.9v2.3h1.8v-2.3c2.2-.1 4.2-.3 5.8-1.1 1.8.8 4 1.1 6.4 1.1v2.3h1.8v-2.3c2 0 3.8-.2 5.4-.7 1.1.5 2.4.7 3.8.7v2.3h1.8v-2.3c2-.1 3.9-.5 5.2-1.6.8 1.1 1.8 1.5 3 1.6v2.3h1.8v-2.3c1.6-.2 2.9-.9 3.9-3.2 1.5 2.5 4.2 3.1 7.3 3.2v2.3h1.8v-2.3c1.4 0 2.7-.2 3.9-.6 1.3.4 2.8.5 4.3.6v2.3h1.8v-2.3c2 0 3.8-.3 5.3-.9 1.1.6 2.4.9 3.9.9v2.3h1.8v-2.3c1.7-.1 3.3-.4 4.5-1.4.8.9 1.7 1.2 2.7 1.3v2.3h1.8V43c1.2-.1 2.3-.6 3.1-1.9 1.8 1.4 4.3 1.8 7.1 1.9v2.3h1.8V43c2.5-.1 4.7-.4 6.4-1.4 1.6 1 3.6 1.3 5.8 1.4v2.3h1.8V43c2-.1 3.9-.3 5.4-1.2 1.1.8 2.4 1.1 3.8 1.2v2.3h1.8V43c1.9-.1 3.5-.5 4.7-2 1 1.3 2.2 1.8 3.5 2v2.3h1.8V43c1.3-.1 2.5-.6 3.5-1.9 2 1.4 4.7 1.9 7.7 1.9v2.3h1.8V43c1.6 0 3-.2 4.3-.5 1.2.3 2.5.4 3.9.5v2.3h1.8V43c2.1-.1 4-.3 5.5-1.1 1 .7 2.3 1 3.7 1.1v2.3h1.8V43c1.7-.1 3.1-.5 4.2-1.5.8 1 1.8 1.4 3 1.5v2.3h1.8V43c1.2-.1 2.3-.6 3.1-1.7.8 1.2 1.9 1.6 3.1 1.7v2.3h1.8V43c1.4-.2 2.7-.8 3.6-2.6 1.8 2 4.5 2.5 7.6 2.6v2.3h1.8V43c1.4 0 2.7-.2 3.8-.4 1.3.3 2.8.4 4.4.5v2.3h1.8v-2.3c2.1 0 4.1-.3 5.7-.9 1 .6 2.2.8 3.5.8v2.3h1.8V43c1.5-.1 2.9-.4 4-1.1.9.7 2 1 3.2 1.1v2.3h1.8V43c1.3-.1 2.6-.5 3.6-1.5 1.7 1.1 4 1.4 6.6 1.5v2.3h1.8V43c2.4-.1 4.5-.3 6.2-1.2 1.7.9 3.7 1.2 6 1.2v2.3h1.8V43c2-.1 3.9-.3 5.5-1 1 .7 2.3.9 3.7 1v2.3h1.8V43c1-.1 2-.2 2.9-.6 1.3.4 2.8.5 4.3.6v2.3h1.8V43c1.9 0 3.7-.3 5.1-.9 1.2.6 2.6.8 4.1.9v2.3h1.8V43c1.6-.1 3-.3 4.2-.9.9.6 1.9.8 3 .9v2.3h1.8V43c1.3-.1 2.5-.4 3.5-1.3 1.8.9 4.1 1.2 6.7 1.3v2.3h1.8V43c2.4 0 4.5-.3 6.2-1.1 1.7.8 3.7 1 6 1.1v2.3h1.8V43c1.9 0 3.7-.2 5.3-.8 1.1.5 2.5.7 3.9.8v2.3h1.8V43c2.1-.1 4-.5 5.4-1.8.8 1.2 1.7 1.6 2.8 1.8v2.3h1.8V43c1.1-.2 2.2-.7 3-2 2.1 1.6 5 2 8.2 2.1v2.3h1.8v-2.3c1.5 0 2.9-.1 4.2-.4 1.2.3 2.6.4 4 .4v2.3h1.8v-2.3c2.1 0 4-.3 5.6-.9 1 .6 2.3.8 3.6.9v2.3h1.8v-2.3c1.8-.1 3.5-.5 4.7-1.6 1.7 1.2 4 1.6 6.5 1.7v2.3h1.8v-2.3c2.1-.1 4.1-.3 5.7-1.1 1 .8 2.2 1 3.5 1.1v2.3h1.8v-2.3c1.9-.1 3.5-.6 4.6-2.3.9 1.6 2.2 2.1 3.6 2.3v2.3h1.8v-2.3c1.4-.1 2.6-.7 3.5-2.2 1.9 1.7 4.6 2.1 7.7 2.2v2.3h1.8v-2.3c1.4 0 2.7-.1 3.9-.4 1.3.3 2.7.4 4.3.4v2.3h1.8v-2.3c1.9 0 3.8-.2 5.3-.7 1.2.5 2.5.6 3.9.7v2.3h1.8v-2.3c1.7-.1 3.3-.3 4.7-1 .7.6 1.6.9 2.5 1v2.3h1.8v-2.3c1.2-.1 2.3-.6 3.1-1.7.9 1.1 1.9 1.5 3.1 1.7v2.3h1.8v-2.3c1.4-.2 2.6-.7 3.5-2.3 1.8 1.8 4.6 2.3 7.7 2.4v2.3h1.8v-2.3c1.4 0 2.7-.1 3.9-.4 1.3.3 2.8.4 4.3.4v2.3h1.8v-2.3c2.2 0 4.1-.2 5.8-.8 1 .5 2.1.7 3.4.8v2.3h1.8v-2.3c1.6-.1 3-.4 4.1-1.3.9.8 1.9 1.2 3.1 1.3v2.3h1.8v-2.3c1.5-.1 2.9-.7 3.9-2.2 1.5 1.7 3.7 2.1 6.3 2.2v2.3h1.8v-2.3c2.3-.1 4.3-.5 5.8-1.7 1.7 1.2 3.9 1.6 6.4 1.7v2.3h1.8v-2.3c2.1-.1 4-.3 5.6-1.1 1 .8 2.3 1.1 3.6 1.1v2.3h1.8v-2.3c1-.1 1.9-.2 2.7-.6 1.3.4 2.9.5 4.5.6v2.3h1.8v-2.3c2.2 0 4.2-.3 5.9-1 .7.6 1.5.9 2.3 1v2.3h1.8v-2.3c1.1-.1 2-.5 2.8-1.5 1.7 1.1 3.9 1.5 6.4 1.5v2.3h1.8v-2.3c1.9 0 3.6-.3 5.1-.9 1.4.6 3.2.8 5.1.9v2.3h1.8v-2.3c2.2-.1 4.2-.3 5.8-1.2.9.8 2.1 1.1 3.4 1.2v2.3h1.8v-2.3c1.5-.1 2.8-.5 3.8-1.5.9 1 2.1 1.4 3.4 1.5v2.3h1.8v-2.3c1.3-.1 2.4-.5 3.4-1.5 1.8 1.1 4.2 1.4 6.8 1.5v2.3h1.8v-2.3c2.5-.1 4.8-.4 6.6-1.3 1.5 1 3.5 1.3 5.6 1.3v2.3h1.8v-2.3c5.1-.3 9.2-1.9 9.2-10.5z" clip-path="url(#SVGID_2_)" fill="#9ad096"/></svg>