<svg xmlns="http://www.w3.org/2000/svg" viewBox="0 0 32 23.7"><path fill="#0d3f63" d="M16 23.7H2.6c-1.7 0-2.5-.8-2.5-2.5C0 15 0 8.8 0 2.6 0 .8.8 0 2.6 0h26.8c1.8 0 2.6.8 2.6 2.6v18.5c0 1.7-.8 2.6-2.6 2.6H16zM1.8 1.7v.2l.3.3c4.1 3.4 8.1 6.7 12.2 10.1 1.1.9 2.4.9 3.5 0C21.9 9 25.9 5.6 30 2.2c0-.1.2-.2.3-.2 0-.1-.1-.1-.1-.2-.2 0-.4-.1-.7-.1H2.4c-.2-.1-.4 0-.6 0zM3.2 22h25.5l-.3-.3c-3.4-2.5-6.8-5.1-10.2-7.6-.1-.1-.5-.1-.7 0-1.1.4-2.2.4-3.2 0-.3-.1-.5-.1-.8.1-2.7 2-5.3 4-8 6-.7.6-1.4 1.2-2.3 1.8zM1.7 3.9v17.2c3.7-2.7 7.3-5.4 11-8.2C9 10 5.4 7 1.7 3.9zm28.6 17.2V3.9c-3.7 3-7.3 6-11 9 3.7 2.8 7.3 5.5 11 8.2z"/></svg>