<svg version="1.1" id="Слой_1" xmlns="http://www.w3.org/2000/svg" x="0" y="0" viewBox="0 0 1248 1126.1" xml:space="preserve"><style>.st0{fill:gold}</style><path class="st0" d="M561.7 0l-17.1 44.1h-39.2L537.9 68 525 112.6l36.7-29.4 36.8 29.4-12.9-44.7L618 44.1h-39.1L561.7 0zM436.8 0l-17.1 44.1h-39.2L413 68l-12.9 44.6 36.7-29.4 36.8 29.4-12.9-44.7 32.5-23.8H454zM312 0l-17.2 44.1h-39.2L288.1 68l-12.8 44.6L312 83.2l36.7 29.4-12.9-44.7 32.5-23.8h-39.2L312 0zM187 0l-17.1 44.1h-39.2L163.2 68l-12.9 44.6L187 83.2l36.7 29.4-12.8-44.7 32.4-23.8h-39.2zM62.1 0L45 44.1H5.8L38.3 68l-12.9 44.6 36.7-29.4 36.7 29.4L86 67.9l32.4-23.8H79.2zm374.7 112.6l-17.1 44.1h-39.2l32.5 23.9-12.9 44.6 36.7-29.4 36.8 29.4-12.9-44.7 32.5-23.8H454zm-124.8 0l-17.2 44.1h-39.2l32.5 23.9-12.8 44.6 36.7-29.4 36.7 29.4-12.9-44.7 32.5-23.8h-39.2L312 112.6zm-125 0l-17.1 44.1h-39.2l32.5 23.9-12.9 44.6 36.7-29.4 36.7 29.4-12.8-44.7 32.4-23.8h-39.2zm-124.9 0L45 156.7H5.8l32.5 23.9-12.9 44.6 36.7-29.4 36.7 29.4L86 180.5l32.4-23.8H79.2zm374.7 112.6l-17.1 44.1h-39.2l32.5 23.9-12.9 44.6 36.7-29.4 36.8 29.4-12.9-44.7 32.5-23.8H454zm-124.8 0l-17.2 44.1h-39.2l32.5 23.9-12.8 44.6 36.7-29.4 36.7 29.4-12.9-44.7 32.5-23.8h-39.2L312 225.2zm-125 0l-17.1 44.1h-39.2l32.5 23.9-12.9 44.6 36.7-29.4 36.7 29.4-12.8-44.7 32.4-23.8h-39.2zm-124.9 0L45 269.3H5.8l32.5 23.9-12.9 44.6 36.7-29.4 36.7 29.4L86 293.1l32.4-23.8H79.2zM312 337.8l-17.2 44.1h-39.2l32.5 23.9-12.8 44.6 36.7-29.3 36.7 29.3-12.9-44.7 32.5-23.8h-39.2L312 337.8zm-125 0l-17.1 44.1h-39.2l32.5 23.9-12.9 44.6 36.7-29.3 36.7 29.3-12.8-44.7 32.4-23.8h-39.2zm-124.9 0L45 381.9H5.8l32.5 23.9-12.9 44.6 36.7-29.3 36.7 29.3L86 405.7l32.4-23.8H79.2z"/><path class="st0" d="M312 450.4l-17.2 44.1h-39.2l32.5 23.9-12.8 44.6 36.7-29.3 36.7 29.3-12.9-44.7 32.5-23.8h-39.2L312 450.4zm-125 0l-17.1 44.1h-39.2l32.5 23.9-12.9 44.6 36.7-29.3 36.7 29.3-12.8-44.7 32.4-23.8h-39.2zm-124.9 0L45 494.5H5.8l32.5 23.9L25.4 563l36.7-29.3L98.8 563 86 518.3l32.4-23.8H79.2zM187 563l-17.1 44.1h-39.2l32.5 23.9-12.9 44.6 36.7-29.3 36.7 29.3-12.8-44.7 32.4-23.8h-39.2zm-124.9 0L45 607.1H5.8L38.3 631l-12.9 44.6 36.7-29.3 36.7 29.3L86 630.9l32.4-23.8H79.2zM187 675.6l-17.1 44.1h-39.2l32.5 23.9-12.9 44.7 36.7-29.4 36.7 29.4-12.8-44.7 32.4-23.9h-39.2zm-124.9 0L45 719.7H5.8l32.5 23.9-12.9 44.7 36.7-29.4 36.7 29.4L86 743.6l32.4-23.9H79.2z"/><path class="st0" d="M62.1 788.3l-17.1 44H5.8l32.5 23.9-12.9 44.7 36.7-29.4 36.7 29.4L86 856.2l32.4-23.9H79.2zm0 112.6l-17.1 44H5.8l32.5 23.9-12.9 44.7 36.7-29.4 36.7 29.4L86 968.8l32.4-23.9H79.2zm499.6-788.3l-17.1 44.1h-39.2l32.4 23.9-12.8 44.6 36.7-29.4zM436.9 337.8l-17.1 44.1h-39.2l32.5 23.9-12.9 44.6 36.7-29.3zM311.9 563l-17.1 44.1h-39.2L288 631l-12.8 44.6 36.7-29.3zM187 788.3l-17.1 44h-39.2l32.4 23.9-12.8 44.7 36.7-29.4zM62.1 1013.5l-17.1 44H5.8l32.4 23.9-12.8 44.7 36.7-29.4zM686.3 0l-17.2 44.1H630l32.4 23.8-12.9 44.7 36.8-29.4 36.7 29.4L710.1 68l32.5-23.9h-39.2L686.3 0zM794 44.1h-39.2l32.5 23.8-12.9 44.7 36.8-29.4 36.7 29.4L835 68l32.5-23.9h-39.2L811.2 0zM936 0l-17.1 44.1h-39.2l32.5 23.8-12.9 44.7L936 83.2l36.7 29.4L959.9 68l32.5-23.9h-39.2L936 0zm107.9 44.1h-39.2l32.4 23.8-12.8 44.7 36.7-29.4 36.7 29.4-12.9-44.6 32.5-23.9h-39.2L1061 0zm124.9 0h-39.2l32.4 23.8-12.8 44.7 36.7-29.4 36.7 29.4-12.9-44.6 32.5-23.9H1203L1185.9 0z"/><path class="st0" d="M794 156.7h-39.2l32.5 23.8-12.9 44.7 36.8-29.4 36.7 29.4-12.9-44.6 32.5-23.9h-39.2l-17.1-44.1zm142-44.1l-17.1 44.1h-39.2l32.5 23.8-12.9 44.7 36.7-29.4 36.7 29.4-12.8-44.6 32.5-23.9h-39.2L936 112.6zm107.9 44.1h-39.2l32.4 23.8-12.8 44.7 36.7-29.4 36.7 29.4-12.9-44.6 32.5-23.9h-39.2l-17.1-44.1zm124.9 0h-39.2l32.4 23.8-12.8 44.7 36.7-29.4 36.7 29.4-12.9-44.6 32.5-23.9H1203l-17.1-44.1zM794 269.3h-39.2l32.5 23.8-12.9 44.7 36.8-29.4 36.7 29.4-12.9-44.6 32.5-23.9h-39.2l-17.1-44.1zm142-44.1l-17.1 44.1h-39.2l32.5 23.8-12.9 44.7 36.7-29.4 36.7 29.4-12.8-44.6 32.5-23.9h-39.2L936 225.2zm107.9 44.1h-39.2l32.4 23.8-12.8 44.7 36.7-29.4 36.7 29.4-12.9-44.6 32.5-23.9h-39.2l-17.1-44.1zm124.9 0h-39.2l32.4 23.8-12.8 44.7 36.7-29.4 36.7 29.4-12.9-44.6 32.5-23.9H1203l-17.1-44.1zM936 337.8l-17.1 44.1h-39.2l32.5 23.8-12.9 44.7 36.7-29.3 36.7 29.3-12.8-44.6 32.5-23.9h-39.2L936 337.8z"/><path class="st0" d="M1043.9 381.9h-39.2l32.4 23.8-12.8 44.7 36.7-29.3 36.7 29.3-12.9-44.6 32.5-23.9h-39.2l-17.1-44.1zm124.9 0h-39.2l32.4 23.8-12.8 44.7 36.7-29.3 36.7 29.3-12.9-44.6 32.5-23.9H1203l-17.1-44.1zM936 450.4l-17.1 44.1h-39.2l32.5 23.8-12.9 44.7 36.7-29.3 36.7 29.3-12.8-44.6 32.5-23.9h-39.2L936 450.4zm107.9 44.1h-39.2l32.4 23.8-12.8 44.7 36.7-29.3 36.7 29.3-12.9-44.6 32.5-23.9h-39.2l-17.1-44.1zm124.9 0h-39.2l32.4 23.8-12.8 44.7 36.7-29.3 36.7 29.3-12.9-44.6 32.5-23.9H1203l-17.1-44.1zm-124.9 112.6h-39.2l32.4 23.8-12.8 44.7 36.7-29.3 36.7 29.3-12.9-44.6 32.5-23.9h-39.2L1061 563zm124.9 0h-39.2l32.4 23.8-12.8 44.7 36.7-29.3 36.7 29.3-12.9-44.6 32.5-23.9H1203l-17.1-44.1zm-124.9 112.6h-39.2l32.4 23.9-12.8 44.7 36.7-29.4 36.7 29.4-12.9-44.7 32.5-23.9h-39.2l-17.1-44.1zm124.9 0h-39.2l32.4 23.9-12.8 44.7 36.7-29.4 36.7 29.4-12.9-44.7 32.5-23.9H1203l-17.1-44.1z"/><path class="st0" d="M1168.8 832.3h-39.2l32.4 23.9-12.8 44.7 36.7-29.4 36.7 29.4-12.9-44.7 32.5-23.9H1203l-17.1-44zm0 112.6h-39.2l32.4 23.9-12.8 44.7 36.7-29.4 36.7 29.4-12.9-44.7 32.5-23.9H1203l-17.1-44zM686.3 195.8l36.7 29.4-12.8-44.6 32.4-23.9h-39.2l-17.1-44.1zm124.8 225.3l36.7 29.3-12.9-44.6 32.5-23.9h-39.2l-17.1-44.1zm125 225.2l36.7 29.3L960 631l32.4-23.9h-39.2L936.1 563zM1061 871.5l36.7 29.4-12.8-44.7 32.4-23.9h-39.2l-17.1-44zm124.9 225.2l36.7 29.4-12.8-44.7 32.4-23.9H1203l-17.1-44z"/></svg>